REM COMMENT "Generated by IcecastMetadataRecorder https://github.com/eshaz/icecast-metadata-js"
REM BR "16"
REM METAINT "64"
REM DATE "2020-07-29T21:16:11.222Z"
TITLE "isics-all"
FILE "isics-all.mp3" WAVE
  TRACK 1 AUDIO
    TITLE "2020-07-29T21:29:43.742Z TO:24631 Dallas County Fire/EMS Operations FROM:UNKNOWN"
    INDEX 01 13:32:39
  TRACK 2 AUDIO
    TITLE "2020-07-29T21:29:47.990Z TO:14002 Region 4 Interoperability Tac 42 FROM:UNKNOWN"
    INDEX 01 13:36:58
  TRACK 3 AUDIO
    TITLE "2020-07-29T21:29:54.254Z TO:14002 Region 4 Interoperability Tac 42 FROM:UNKNOWN"
    INDEX 01 13:43:02
  TRACK 4 AUDIO
    TITLE "2020-07-29T21:29:54.974Z TO:14002 Region 4 Interoperability Tac 42 FROM:UNKNOWN"
    INDEX 01 13:43:56
  TRACK 5 AUDIO
    TITLE "2020-07-29T21:30:08.294Z TO:24631 Dallas County Fire/EMS Operations FROM:2559981"
    INDEX 01 13:57:05
  TRACK 6 AUDIO
    TITLE "2020-07-29T21:30:10.382Z TO:24631 Dallas County Fire/EMS Operations FROM:2520301"
    INDEX 01 13:59:12
  TRACK 7 AUDIO
    TITLE "2020-07-29T21:30:14.558Z TO:14002 Region 4 Interoperability Tac 42 FROM:UNKNOWN"
    INDEX 01 14:03:25
  TRACK 8 AUDIO
    TITLE "2020-07-29T21:30:20.894Z TO:24631 Dallas County Fire/EMS Operations FROM:2559981"
    INDEX 01 14:09:50
  TRACK 9 AUDIO
    TITLE "2020-07-29T21:30:22.982Z TO:14002 Region 4 Interoperability Tac 42 FROM:UNKNOWN"
    INDEX 01 14:11:57
  TRACK 10 AUDIO
    TITLE "END"
    INDEX 01 14:15:70